<svg width="854" height="105" viewBox="0 0 854 105" fill="none" xmlns="http://www.w3.org/2000/svg">
<path d="M45.7525 104.45C36.4791 104.45 28.4625 102.803 21.7025 99.51C15.0291 96.13 9.87246 91.4934 6.23246 85.6C2.59246 79.62 0.772461 72.73 0.772461 64.93C0.772461 57.2167 2.11579 50.0234 4.80246 43.35C7.57579 36.6767 11.4325 30.9134 16.3725 26.06C21.3991 21.12 27.3358 17.2634 34.1825 14.49C41.1158 11.7167 48.8291 10.33 57.3225 10.33C65.4691 10.33 72.6625 11.7167 78.9025 14.49C85.1425 17.2634 89.8658 21.25 93.0725 26.45L77.8625 38.93C75.5225 35.4634 72.5325 32.82 68.8925 31C65.2525 29.18 60.9191 28.27 55.8925 28.27C50.7791 28.27 46.1425 29.18 41.9825 31C37.8225 32.7334 34.2258 35.2467 31.1925 38.54C28.2458 41.7467 25.9925 45.5167 24.4325 49.85C22.8725 54.1834 22.0925 58.7767 22.0925 63.63C22.0925 68.2234 23.0891 72.2534 25.0825 75.72C27.0758 79.1 29.9791 81.7434 33.7925 83.65C37.6058 85.5567 42.1991 86.51 47.5725 86.51C52.2525 86.51 56.6291 85.6867 60.7025 84.04C64.7758 82.3067 68.4591 79.62 71.7525 75.98L84.2325 88.72C79.4658 94.2667 73.7891 98.2967 67.2025 100.81C60.7025 103.237 53.5525 104.45 45.7525 104.45Z" fill="#333333"/>
<path d="M132.572 103.93C125.465 103.93 119.269 102.63 113.982 100.03C108.695 97.43 104.579 93.79 101.632 89.11C98.7721 84.43 97.3421 78.9267 97.3421 72.6C97.3421 64.8 99.1622 57.8667 102.802 51.8C106.442 45.6467 111.425 40.7934 117.752 37.24C124.165 33.6867 131.445 31.91 139.592 31.91C146.785 31.91 152.982 33.21 158.182 35.81C163.469 38.41 167.542 42.05 170.402 46.73C173.349 51.3234 174.822 56.8267 174.822 63.24C174.822 70.9534 173.002 77.8867 169.362 84.04C165.722 90.1934 160.739 95.0467 154.412 98.6C148.085 102.153 140.805 103.93 132.572 103.93ZM133.872 87.29C137.859 87.29 141.369 86.3367 144.402 84.43C147.522 82.4367 149.949 79.7067 151.682 76.24C153.415 72.7734 154.282 68.7434 154.282 64.15C154.282 59.47 152.895 55.7 150.122 52.84C147.349 49.98 143.449 48.55 138.422 48.55C134.435 48.55 130.882 49.5467 127.762 51.54C124.729 53.4467 122.302 56.1334 120.482 59.6C118.749 63.0667 117.882 67.0967 117.882 71.69C117.882 76.4567 119.269 80.27 122.042 83.13C124.815 85.9034 128.759 87.29 133.872 87.29Z" fill="#333333"/>
<path d="M224.131 103.93C217.024 103.93 210.827 102.63 205.541 100.03C200.254 97.43 196.137 93.79 193.191 89.11C190.331 84.43 188.901 78.9267 188.901 72.6C188.901 64.8 190.721 57.8667 194.361 51.8C198.001 45.6467 202.984 40.7934 209.311 37.24C215.724 33.6867 223.004 31.91 231.151 31.91C238.344 31.91 244.541 33.21 249.741 35.81C255.027 38.41 259.101 42.05 261.961 46.73C264.907 51.3234 266.381 56.8267 266.381 63.24C266.381 70.9534 264.561 77.8867 260.921 84.04C257.281 90.1934 252.297 95.0467 245.971 98.6C239.644 102.153 232.364 103.93 224.131 103.93ZM225.431 87.29C229.417 87.29 232.927 86.3367 235.961 84.43C239.081 82.4367 241.507 79.7067 243.241 76.24C244.974 72.7734 245.841 68.7434 245.841 64.15C245.841 59.47 244.454 55.7 241.681 52.84C238.907 49.98 235.007 48.55 229.981 48.55C225.994 48.55 222.441 49.5467 219.321 51.54C216.287 53.4467 213.861 56.1334 212.041 59.6C210.307 63.0667 209.441 67.0967 209.441 71.69C209.441 76.4567 210.827 80.27 213.601 83.13C216.374 85.9034 220.317 87.29 225.431 87.29Z" fill="#333333"/>
<path d="M299.439 88.85L303.859 63.76L341.429 32.95H367.819L328.689 65.58L317.379 73.9L299.439 88.85ZM279.159 102.89L298.399 6.43002H318.679L299.439 102.89H279.159ZM331.809 102.89L313.869 73.51L328.039 58.04L355.339 102.89H331.809Z" fill="#333333"/>
<path d="M369.448 102.89L383.358 32.95H403.508L389.598 102.89H369.448ZM396.878 23.2C393.325 23.2 390.465 22.2034 388.298 20.21C386.132 18.13 385.048 15.6167 385.048 12.67C385.048 9.20335 386.262 6.34335 388.688 4.09002C391.202 1.75002 394.452 0.580017 398.438 0.580017C401.992 0.580017 404.852 1.57668 407.018 3.57002C409.272 5.47668 410.398 7.86002 410.398 10.72C410.398 14.4467 409.142 17.48 406.628 19.82C404.202 22.0734 400.952 23.2 396.878 23.2Z" fill="#333333"/>
<path d="M452.103 103.93C444.823 103.93 438.496 102.63 433.123 100.03C427.836 97.43 423.72 93.79 420.773 89.11C417.826 84.43 416.353 78.9267 416.353 72.6C416.353 64.8 418.086 57.8667 421.553 51.8C425.106 45.6467 429.96 40.7934 436.113 37.24C442.353 33.6867 449.503 31.91 457.563 31.91C464.41 31.91 470.303 33.21 475.243 35.81C480.183 38.3234 483.996 41.8767 486.683 46.47C489.456 50.9767 490.843 56.3934 490.843 62.72C490.843 64.54 490.713 66.36 490.453 68.18C490.28 70 490.02 71.7334 489.673 73.38H431.823L433.903 61.55H480.183L471.863 65.19C472.556 61.29 472.34 58.04 471.213 55.44C470.086 52.7533 468.266 50.7167 465.753 49.33C463.24 47.8567 460.206 47.12 456.653 47.12C452.233 47.12 448.463 48.2034 445.343 50.37C442.31 52.45 440.013 55.3533 438.453 59.08C436.893 62.8067 436.113 67.01 436.113 71.69C436.113 77.0634 437.586 81.0934 440.533 83.78C443.566 86.38 448.116 87.68 454.183 87.68C457.736 87.68 461.16 87.1167 464.453 85.99C467.746 84.8634 470.563 83.26 472.903 81.18L481.353 94.57C477.28 97.7767 472.686 100.16 467.573 101.72C462.546 103.193 457.39 103.93 452.103 103.93Z" fill="#333333"/>
<path d="M547.67 102.89L565.87 11.89H583.03L608.9 76.37L599.8 76.24L650.24 11.89H668.31L650.24 102.89H630.48L642.57 41.92H646.6L606.43 93.27H597.07L575.62 41.79L579.52 42.18L567.43 102.89H547.67Z" fill="#333333"/>
<path d="M708.62 103.93C703.247 103.93 698.264 102.717 693.67 100.29C689.077 97.7767 685.394 94.18 682.62 89.5C679.847 84.82 678.46 79.1867 678.46 72.6C678.46 66.7067 679.414 61.29 681.32 56.35C683.314 51.41 686.087 47.12 689.64 43.48C693.194 39.84 697.31 37.0234 701.99 35.03C706.67 32.95 711.697 31.91 717.07 31.91C722.877 31.91 727.86 32.9934 732.02 35.16C736.18 37.3267 739.257 40.7067 741.25 45.3C743.33 49.8067 744.067 55.6567 743.46 62.85C743.027 71.0834 741.337 78.32 738.39 84.56C735.444 90.7134 731.457 95.48 726.43 98.86C721.49 102.24 715.554 103.93 708.62 103.93ZM714.86 87.16C718.847 87.16 722.357 86.2067 725.39 84.3C728.51 82.3067 730.937 79.62 732.67 76.24C734.49 72.7734 735.4 68.7434 735.4 64.15C735.4 59.3834 733.97 55.6134 731.11 52.84C728.337 50.0667 724.437 48.68 719.41 48.68C715.51 48.68 712 49.6767 708.88 51.67C705.76 53.5767 703.29 56.2634 701.47 59.73C699.737 63.11 698.87 67.0967 698.87 71.69C698.87 76.4567 700.257 80.2267 703.03 83C705.89 85.7734 709.834 87.16 714.86 87.16ZM728.77 102.89L731.5 88.98L736.05 68.18L738.78 47.38L741.64 32.95H761.92L748.01 102.89H728.77Z" fill="#333333"/>
<path d="M827.886 31.91C833.866 31.91 838.936 33.1667 843.096 35.68C847.256 38.1067 850.203 41.7034 851.936 46.47C853.67 51.2367 853.843 57.13 852.456 64.15L844.656 102.89H824.376L831.916 65.45C832.956 60.3367 832.523 56.3934 830.616 53.62C828.796 50.8467 825.416 49.46 820.476 49.46C815.363 49.46 811.073 50.9334 807.606 53.88C804.226 56.8267 801.886 61.3334 800.586 67.4L793.566 102.89H773.286L787.196 32.95H806.436L802.406 52.71L799.546 46.73C802.926 41.6167 807.086 37.89 812.026 35.55C817.053 33.1234 822.34 31.91 827.886 31.91Z" fill="#333333"/>
</svg>
