<svg width="853" height="105" viewBox="0 0 853 105" fill="none" xmlns="http://www.w3.org/2000/svg">
<path d="M45.0235 104.427C35.7501 104.427 27.7335 102.78 20.9735 99.4866C14.3001 96.1066 9.14346 91.4699 5.50346 85.5766C1.86346 79.5966 0.043457 72.7066 0.043457 64.9066C0.043457 57.1932 1.38679 49.9999 4.07346 43.3266C6.84679 36.6533 10.7035 30.8899 15.6435 26.0366C20.6701 21.0966 26.6068 17.2399 33.4535 14.4666C40.3868 11.6933 48.1001 10.3066 56.5935 10.3066C64.7401 10.3066 71.9335 11.6933 78.1735 14.4666C84.4135 17.2399 89.1368 21.2266 92.3435 26.4266L77.1335 38.9066C74.7935 35.4399 71.8035 32.7966 68.1635 30.9766C64.5235 29.1566 60.1901 28.2466 55.1635 28.2466C50.0501 28.2466 45.4135 29.1566 41.2535 30.9766C37.0935 32.7099 33.4968 35.2232 30.4635 38.5166C27.5168 41.7232 25.2635 45.4932 23.7035 49.8266C22.1435 54.1599 21.3635 58.7532 21.3635 63.6066C21.3635 68.1999 22.3601 72.2299 24.3535 75.6966C26.3468 79.0766 29.2501 81.7199 33.0635 83.6266C36.8768 85.5333 41.4701 86.4866 46.8435 86.4866C51.5235 86.4866 55.9001 85.6633 59.9735 84.0166C64.0468 82.2833 67.7301 79.5966 71.0235 75.9566L83.5035 88.6966C78.7368 94.2433 73.0601 98.2732 66.4735 100.787C59.9735 103.213 52.8235 104.427 45.0235 104.427Z" fill="white"/>
<path d="M131.843 103.907C124.736 103.907 118.54 102.607 113.253 100.007C107.966 97.4066 103.85 93.7666 100.903 89.0866C98.0431 84.4066 96.6131 78.9033 96.6131 72.5766C96.6131 64.7766 98.4332 57.8432 102.073 51.7766C105.713 45.6232 110.696 40.7699 117.023 37.2166C123.436 33.6633 130.716 31.8866 138.863 31.8866C146.056 31.8866 152.253 33.1866 157.453 35.7866C162.74 38.3866 166.813 42.0266 169.673 46.7066C172.62 51.2999 174.093 56.8032 174.093 63.2166C174.093 70.9299 172.273 77.8633 168.633 84.0166C164.993 90.1699 160.01 95.0233 153.683 98.5766C147.356 102.13 140.076 103.907 131.843 103.907ZM133.143 87.2666C137.13 87.2666 140.64 86.3133 143.673 84.4066C146.793 82.4133 149.22 79.6833 150.953 76.2166C152.686 72.7499 153.553 68.7199 153.553 64.1266C153.553 59.4466 152.166 55.6766 149.393 52.8166C146.62 49.9566 142.72 48.5266 137.693 48.5266C133.706 48.5266 130.153 49.5233 127.033 51.5166C124 53.4233 121.573 56.1099 119.753 59.5766C118.02 63.0432 117.153 67.0732 117.153 71.6666C117.153 76.4332 118.54 80.2466 121.313 83.1066C124.086 85.8799 128.03 87.2666 133.143 87.2666Z" fill="white"/>
<path d="M223.402 103.907C216.295 103.907 210.098 102.607 204.812 100.007C199.525 97.4066 195.408 93.7666 192.462 89.0866C189.602 84.4066 188.172 78.9033 188.172 72.5766C188.172 64.7766 189.992 57.8432 193.632 51.7766C197.272 45.6232 202.255 40.7699 208.582 37.2166C214.995 33.6633 222.275 31.8866 230.422 31.8866C237.615 31.8866 243.812 33.1866 249.012 35.7866C254.298 38.3866 258.372 42.0266 261.232 46.7066C264.178 51.2999 265.652 56.8032 265.652 63.2166C265.652 70.9299 263.832 77.8633 260.192 84.0166C256.552 90.1699 251.568 95.0233 245.242 98.5766C238.915 102.13 231.635 103.907 223.402 103.907ZM224.702 87.2666C228.688 87.2666 232.198 86.3133 235.232 84.4066C238.352 82.4133 240.778 79.6833 242.512 76.2166C244.245 72.7499 245.112 68.7199 245.112 64.1266C245.112 59.4466 243.725 55.6766 240.952 52.8166C238.178 49.9566 234.278 48.5266 229.252 48.5266C225.265 48.5266 221.712 49.5233 218.592 51.5166C215.558 53.4233 213.132 56.1099 211.312 59.5766C209.578 63.0432 208.712 67.0732 208.712 71.6666C208.712 76.4332 210.098 80.2466 212.872 83.1066C215.645 85.8799 219.588 87.2666 224.702 87.2666Z" fill="white"/>
<path d="M298.71 88.8266L303.13 63.7366L340.7 32.9266H367.09L327.96 65.5566L316.65 73.8766L298.71 88.8266ZM278.43 102.867L297.67 6.40658H317.95L298.71 102.867H278.43ZM331.08 102.867L313.14 73.4866L327.31 58.0166L354.61 102.867H331.08Z" fill="white"/>
<path d="M368.719 102.867L382.629 32.9266H402.779L388.869 102.867H368.719ZM396.149 23.1766C392.596 23.1766 389.736 22.1799 387.569 20.1866C385.403 18.1066 384.319 15.5933 384.319 12.6466C384.319 9.17992 385.533 6.31992 387.959 4.06658C390.473 1.72658 393.723 0.55658 397.709 0.55658C401.263 0.55658 404.123 1.55325 406.289 3.54658C408.543 5.45325 409.669 7.83658 409.669 10.6966C409.669 14.4233 408.413 17.4566 405.899 19.7966C403.473 22.0499 400.223 23.1766 396.149 23.1766Z" fill="white"/>
<path d="M451.374 103.907C444.094 103.907 437.767 102.607 432.394 100.007C427.107 97.4066 422.991 93.7666 420.044 89.0866C417.097 84.4066 415.624 78.9033 415.624 72.5766C415.624 64.7766 417.357 57.8432 420.824 51.7766C424.377 45.6232 429.231 40.7699 435.384 37.2166C441.624 33.6633 448.774 31.8866 456.834 31.8866C463.681 31.8866 469.574 33.1866 474.514 35.7866C479.454 38.2999 483.267 41.8533 485.954 46.4466C488.727 50.9533 490.114 56.3699 490.114 62.6966C490.114 64.5166 489.984 66.3366 489.724 68.1566C489.551 69.9766 489.291 71.7099 488.944 73.3566H431.094L433.174 61.5266H479.454L471.134 65.1666C471.827 61.2666 471.611 58.0166 470.484 55.4166C469.357 52.7299 467.537 50.6932 465.024 49.3066C462.511 47.8332 459.477 47.0966 455.924 47.0966C451.504 47.0966 447.734 48.1799 444.614 50.3466C441.581 52.4266 439.284 55.3299 437.724 59.0566C436.164 62.7832 435.384 66.9866 435.384 71.6666C435.384 77.0399 436.857 81.0699 439.804 83.7566C442.837 86.3566 447.387 87.6566 453.454 87.6566C457.007 87.6566 460.431 87.0933 463.724 85.9666C467.017 84.8399 469.834 83.2366 472.174 81.1566L480.624 94.5466C476.551 97.7533 471.957 100.137 466.844 101.697C461.817 103.17 456.661 103.907 451.374 103.907Z" fill="white"/>
<path d="M546.941 102.867L565.141 11.8666H582.301L608.171 76.3466L599.071 76.2166L649.511 11.8666H667.581L649.511 102.867H629.751L641.841 41.8966H645.871L605.701 93.2466H596.341L574.891 41.7666L578.791 42.1566L566.701 102.867H546.941Z" fill="white"/>
<path d="M707.891 103.907C702.518 103.907 697.535 102.693 692.941 100.267C688.348 97.7533 684.665 94.1566 681.891 89.4766C679.118 84.7966 677.731 79.1633 677.731 72.5766C677.731 66.6832 678.685 61.2666 680.591 56.3266C682.585 51.3866 685.358 47.0966 688.911 43.4566C692.465 39.8166 696.581 36.9999 701.261 35.0066C705.941 32.9266 710.968 31.8866 716.341 31.8866C722.148 31.8866 727.131 32.9699 731.291 35.1366C735.451 37.3032 738.528 40.6832 740.521 45.2766C742.601 49.7832 743.338 55.6333 742.731 62.8266C742.298 71.0599 740.608 78.2966 737.661 84.5366C734.715 90.6899 730.728 95.4566 725.701 98.8366C720.761 102.217 714.825 103.907 707.891 103.907ZM714.131 87.1366C718.118 87.1366 721.628 86.1832 724.661 84.2766C727.781 82.2832 730.208 79.5966 731.941 76.2166C733.761 72.7499 734.671 68.7199 734.671 64.1266C734.671 59.3599 733.241 55.5899 730.381 52.8166C727.608 50.0432 723.708 48.6566 718.681 48.6566C714.781 48.6566 711.271 49.6533 708.151 51.6466C705.031 53.5533 702.561 56.2399 700.741 59.7066C699.008 63.0866 698.141 67.0732 698.141 71.6666C698.141 76.4332 699.528 80.2033 702.301 82.9766C705.161 85.7499 709.105 87.1366 714.131 87.1366ZM728.041 102.867L730.771 88.9566L735.321 68.1566L738.051 47.3566L740.911 32.9266H761.191L747.281 102.867H728.041Z" fill="white"/>
<path d="M827.157 31.8866C833.137 31.8866 838.207 33.1433 842.367 35.6566C846.527 38.0833 849.474 41.6799 851.207 46.4466C852.941 51.2133 853.114 57.1066 851.727 64.1266L843.927 102.867H823.647L831.187 65.4266C832.227 60.3133 831.794 56.3699 829.887 53.5966C828.067 50.8232 824.687 49.4366 819.747 49.4366C814.634 49.4366 810.344 50.9099 806.877 53.8566C803.497 56.8032 801.157 61.3099 799.857 67.3766L792.837 102.867H772.557L786.467 32.9266H805.707L801.677 52.6866L798.817 46.7066C802.197 41.5932 806.357 37.8666 811.297 35.5266C816.324 33.0999 821.611 31.8866 827.157 31.8866Z" fill="white"/>
</svg>
